<svg width="500" height="500" xmlns="http://www.w3.org/2000/svg" stroke="null">
 <g stroke="null">
  <title stroke="null">Layer 1</title>
  <path stroke="#432E36" id="svg_7" d="m145.70687,205.07681c5.91345,6.99363 11.79439,16.0635 17.82847,26.3098c0.8703,-1.56826 1.6917,-3.08857 2.56228,-4.68998c8.73343,-16.06411 18.63037,-34.25264 29.72064,-51.85257c1.76031,-2.85936 3.60883,-5.26197 5.40177,-7.95871c-8.32268,-12.23978 -17.50252,-23.98944 -28.57657,-34.08886c-17.12432,-15.81882 -39.49723,-26.81686 -64.36715,-26.58855l-107.77627,0l0,77.19946l107.79586,0c14.98905,0.35946 24.49178,6.43806 37.41101,21.6694l-0.00004,0zm233.53729,63.17802l0,48.32232c-15.75837,-0.04922 -41.87358,-0.04922 -49.27366,-0.04922c-21.87695,-0.63698 -36.23395,-9.38004 -51.17095,-24.59414c-6.46123,-6.6508 -12.64842,-14.98588 -18.75102,-24.26772c-4.58005,8.05626 -9.19621,16.37459 -13.8937,25.01883c-5.7082,10.45948 -11.58907,21.21257 -17.72427,31.7855c-1.52247,2.59843 -3.23057,5.27798 -4.8378,7.90974c24.86698,32.73206 59.35988,60.95393 105.9996,61.29746l49.65179,0l0,48.32241l60.07726,-43.38677l60.17858,-43.48544l-60.17858,-43.43627l-60.07726,-43.43667l0,-0.00002zm-100.44462,-60.23689c14.937,-15.24687 29.294,-23.95685 51.17095,-24.59444c7.4001,0 33.51529,0 49.27366,-0.03252l0,48.32324l60.07726,-43.40419l60.17858,-43.43667l-60.17858,-43.46996l-60.07726,-43.40341l0,48.2736l-49.65179,0c-56.27919,0.4255 -95.0788,41.3453 -120.33981,81.8725c-25.73733,40.95352 -44.40358,84.14515 -63.5457,106.71282c-12.93878,15.18144 -22.42195,21.32552 -37.41101,21.66902l-107.79586,0l0,77.19881l107.79586,0c24.86682,0.22885 47.23951,-10.75255 64.36386,-26.60408c17.29733,-15.73694 30.28803,-35.36366 41.94224,-55.121c22.92048,-39.79278 41.94209,-81.07176 64.19758,-103.98371l0.00002,-0.00002z" fill="#432E36"/>
 </g>

</svg>