<svg width="800" height="800" xmlns="http://www.w3.org/2000/svg" stroke="null" style="vector-effect: non-scaling-stroke;">

 <g stroke="null">
  <title stroke="null">Layer 1</title>
  <path stroke="#000" id="svg_7" d="m666.77588,340.0454c-26.57417,-155.00383 -153.73047,-272.5454 -306.92607,-272.5454l0,119.87922c110.26593,0.17982 199.44705,95.1841 199.70041,212.60579c-0.25336,117.39172 -89.43448,212.33606 -199.70041,212.57582l0,119.93916c153.1956,-0.11988 280.3519,-117.66145 306.92607,-272.60534l132.02635,0l0,-119.84925l-132.02635,0zm-131.88559,59.93961c0,-102.94628 -78.37129,-186.38221 -175.06863,-186.38221c-76.93561,0 -142.16057,52.92667 -165.63817,126.41263l-192.38125,0l0,119.90919l192.38125,0c23.44946,73.48596 88.67441,126.4426 165.63817,126.4426c96.69734,0 175.06863,-83.4659 175.06863,-186.38221z" fill="#000000"/>
 </g>
</svg>