<svg width="500" height="500" xmlns="http://www.w3.org/2000/svg" stroke="null" style="vector-effect: non-scaling-stroke;">

 <g stroke="null">
  <title stroke="null">Layer 1</title>
  <path stroke="#000" id="svg_12" d="m137.41522,138.44198c-48.26576,0 -89.1848,31.67642 -103.91354,75.65749l-33.5017,0l0,71.7652l33.5017,0c14.71108,43.98107 55.63012,75.67542 103.91354,75.67542c60.66333,0 109.82976,-49.93609 109.82976,-111.54905s-49.18409,-111.54905 -109.82976,-111.54905zm326.11615,75.67542c-16.67138,-92.76921 -96.44321,-163.1174 -192.55087,-163.1174l0,71.74726c69.17562,0.10762 125.12363,56.96733 125.28257,127.24377c-0.15894,70.25851 -56.10695,127.08234 -125.28257,127.22583l0,71.78313c96.10766,-0.07175 175.87949,-70.41994 192.55087,-163.15327l36.46864,0l0,-71.72932l-36.46864,0z" fill="#000000"/>
 </g>
</svg>