<svg width="500" height="500" xmlns="http://www.w3.org/2000/svg" stroke="null" style="vector-effect: non-scaling-stroke;">

 <g stroke="null">
  <title stroke="null">Layer 1</title>
  <path stroke="#000" id="svg_16" d="m499.48147,160.46036c-0.0741,-46.17623 -33.19504,-83.58985 -74.07755,-83.65259l0,-0.02091l-227.0489,0c-9.35463,-33.92112 -37.2518,-58.72412 -70.48389,-58.78686l-53.25655,0c-40.90103,0.04183 -74.0405,37.47636 -74.1146,83.65259l0,296.71573c0.0741,46.1344 33.21357,83.54802 74.1146,83.63168l350.80786,0c40.84546,-0.08365 74.00345,-37.49727 74.07755,-83.63168l0,-237.90796l-0.01852,0zm-424.86689,-100.65498l53.25655,0c19.37612,-0.08365 35.51054,17.44156 36.73313,39.23306l1.07439,19.59562l259.74379,0c20.24675,0.04183 36.99247,18.94731 37.02951,41.82629l0,10.35201c-10.94769,-7.21504 -23.48846,-11.64862 -37.04804,-11.66954l-350.80786,0c-13.55958,0.02091 -26.11887,4.47541 -37.04804,11.69045l0,-69.2016c0.05557,-22.87898 16.80128,-41.78447 37.06656,-41.82629zm350.78934,380.36832l-350.78934,0c-20.24675,-0.04183 -36.99247,-18.98914 -37.06656,-41.82629l0,-155.55199l0.01852,0c0.03705,-22.8999 16.78276,-41.80538 37.04804,-41.84721l350.80786,0c20.24675,0.04183 36.88132,18.84275 37.04804,41.63808l0,155.74021c-0.0741,22.8999 -16.81981,41.80538 -37.06656,41.84721z" fill="#000000"/>
 </g>
</svg>