<svg width="500" height="500" xmlns="http://www.w3.org/2000/svg" stroke="null" style="vector-effect: non-scaling-stroke;">

 <g stroke="null">
  <title stroke="null">Layer 1</title>
  <path id="svg_13" d="m286.91097,337.47639l-14.35477,-50.58361c4.2068,-3.71529 8.15528,-7.69064 11.88236,-11.94464l50.20481,14.45246c5.2954,-7.76495 9.85276,-16.01288 13.9304,-24.57661l-37.363,-36.4098c1.78973,-5.35001 3.33961,-10.7929 4.44666,-16.40299l50.35241,-12.70628c0.36902,-4.68126 0.71958,-9.3811 0.71958,-14.17381s-0.36902,-9.47398 -0.71958,-14.15524l-50.35241,-12.70628c-1.1255,-5.61008 -2.67538,-11.05297 -4.44666,-16.40299l37.38146,-36.4098c-4.09609,-8.54516 -8.65346,-16.81167 -13.94885,-24.57661l-50.20481,14.43388c-3.70862,-4.23543 -7.67556,-8.21078 -11.88236,-11.94464l14.35477,-50.56503c-7.71246,-5.31286 -15.9231,-9.91981 -24.42895,-14.0252l-36.1637,37.63584c-5.2954,-1.80191 -10.71995,-3.34376 -16.29211,-4.47692l-12.60194,-50.71365c-4.66807,-0.35295 -9.31769,-0.72448 -14.07801,-0.72448s-9.40994,0.37153 -14.05956,0.72448l-12.62039,50.71365c-5.57216,1.13316 -10.97827,2.67501 -16.29211,4.47692l-36.1637,-37.63584c-8.4874,4.16112 -16.67958,8.7495 -24.39205,14.08093l14.35477,50.56503c-4.2068,3.71529 -8.17373,7.70922 -11.86391,11.92607l-50.22326,-14.45246c-5.2954,7.76495 -9.85276,16.03146 -13.9304,24.59519l37.38146,36.4098c-1.77128,5.35001 -3.32116,10.7929 -4.44666,16.40299l-50.37086,12.70628c-0.35057,4.68126 -0.71958,9.3811 -0.71958,14.15524s0.36902,9.47398 0.71958,14.17381l50.37086,12.70628c1.1255,5.61008 2.67538,11.05297 4.44666,16.40299l-37.38146,36.4098c4.07764,8.54516 8.63501,16.81167 13.9304,24.57661l50.22326,-14.45246c3.69017,4.254 7.65711,8.21078 11.86391,11.94464l-14.35477,50.58361c7.71246,5.31286 15.9231,9.90124 24.4105,14.0252l36.1637,-37.63584c5.31385,1.80191 10.71995,3.36233 16.29211,4.47692l12.62039,50.69507c4.64962,0.37153 9.31769,0.72448 14.07801,0.72448s9.40994,-0.37153 14.07801,-0.72448l12.60194,-50.69507c5.57216,-1.13316 10.99672,-2.69358 16.29211,-4.47692l36.1637,37.63584c8.46895,-4.16112 16.67958,-8.7495 24.39205,-14.06236zm-103.54626,-89.18543c-34.63228,0 -62.71449,-28.27332 -62.71449,-63.14128s28.08222,-63.1227 62.71449,-63.1227s62.69604,28.25475 62.69604,63.1227s-28.06377,63.14128 -62.69604,63.14128zm285.84082,131.98552c0.35057,-10.16131 -1.10705,-20.50838 -4.2437,-30.72541l22.95288,-32.93601c-3.46876,-6.50175 -7.38035,-12.66912 -11.82701,-18.2792l-39.15274,8.26651c-7.89697,-6.76182 -16.88254,-12.03752 -26.49544,-15.80854l-11.27348,-38.62039c-7.12203,-1.2632 -14.33632,-1.95052 -21.64287,-1.9691l-17.97114,35.96396c-5.14779,1.00313 -10.29558,2.37778 -15.35112,4.32831c-4.74187,1.82049 -9.17008,4.08681 -13.41378,6.55748l-37.01244,-15.21409c-5.47991,4.86702 -10.48009,10.12415 -15.00055,15.82712l16.73494,36.55841c-4.77877,9.19533 -8.06303,19.09657 -9.576,29.44364l-34.89059,19.69101c0.35057,7.20765 1.40227,14.41531 3.02594,21.64154l38.82062,9.64117c4.26215,9.73405 9.98192,18.44639 16.90099,25.87696l-6.4947,39.7164c5.90428,4.27258 12.17757,7.95071 18.69073,11.14586l31.64324,-24.52088c9.88966,2.61928 20.2406,3.6224 30.66534,2.78646l26.79066,29.85232c3.69017,-1.05886 7.3619,-2.19202 10.99672,-3.58525c3.2289,-1.22604 6.27329,-2.67501 9.31769,-4.14254l0.68268,-40.21796c8.39514,-6.29741 15.55408,-13.87659 21.2554,-22.40317l39.87232,-2.48924c2.80453,-6.66894 5.14779,-13.59794 6.78992,-20.71272l-30.7945,-25.67262zm-76.81096,37.28289c-22.15949,8.508 -46.95745,-2.67501 -55.4264,-24.98529s2.63847,-47.29558 24.79796,-55.82216c22.15949,-8.508 46.99436,2.67501 55.4633,24.98529c8.4505,22.31029 -2.67538,47.29558 -24.83487,55.82216z" stroke="#000" fill="#000000"/>
 </g>
</svg>